HIERARCHY
ROOT Hips
{
	OFFSET 0.000000 0.000000 0.000000
	CHANNELS 6 Xposition Yposition Zposition Zrotation Yrotation Xrotation 
	JOINT LHipJoint
	{
		OFFSET 0.000000 0.000000 0.000000
		CHANNELS 3 Zrotation Yrotation Xrotation
		JOINT LeftUpLeg
		{
			OFFSET 1.363060 -1.794630 0.839290
			CHANNELS 3 Zrotation Yrotation Xrotation
			JOINT LeftLeg
			{
				OFFSET 2.448110 -6.726130 0.000000
				CHANNELS 3 Zrotation Yrotation Xrotation
				JOINT LeftFoot
				{
					OFFSET 2.562200 -7.039590 0.000000
					CHANNELS 3 Zrotation Yrotation Xrotation
					JOINT LeftToeBase
					{
						OFFSET 0.157640 -0.433110 2.322550
						CHANNELS 3 Zrotation Yrotation Xrotation
						End Site
						{
							OFFSET 0.000000 0.000000 0.000000
						}
					}
				}
			}
		}
	}
	JOINT RHipJoint
	{
		OFFSET 0.000000 0.000000 0.000000
		CHANNELS 3 Zrotation Yrotation Xrotation
		JOINT RightUpLeg
		{
			OFFSET -1.305520 -1.794630 0.839290
			CHANNELS 3 Zrotation Yrotation Xrotation
			JOINT RightLeg
			{
				OFFSET -2.542530 -6.985550 0.000000
				CHANNELS 3 Zrotation Yrotation Xrotation
				JOINT RightFoot
				{
					OFFSET -2.568260 -7.056230 0.000000
					CHANNELS 3 Zrotation Yrotation Xrotation
					JOINT RightToeBase
					{
						OFFSET -0.164730 -0.452590 2.363150
						CHANNELS 3 Zrotation Yrotation Xrotation
						End Site
						{
							OFFSET 0.000000 0.000000 0.000000
						}
					}
				}
			}
		}
	}
	JOINT LowerBack
	{
		OFFSET 0.000000 0.000000 0.000000
		CHANNELS 3 Zrotation Yrotation Xrotation
		JOINT Spine
		{
			OFFSET 0.028270 2.035590 -0.193380
			CHANNELS 3 Zrotation Yrotation Xrotation
			JOINT Spine1
			{
				OFFSET 0.056720 2.048850 -0.042750
				CHANNELS 3 Zrotation Yrotation Xrotation
				JOINT Neck
				{
					OFFSET 0.000000 0.000000 0.000000
					CHANNELS 3 Zrotation Yrotation Xrotation
					JOINT Neck1
					{
						OFFSET -0.054170 1.746240 0.172020
						CHANNELS 3 Zrotation Yrotation Xrotation
						JOINT Head
						{
							OFFSET 0.104070 1.761360 -0.123970
							CHANNELS 3 Zrotation Yrotation Xrotation
							End Site
							{
								OFFSET 0.000000 0.000000 0.000000
							}
						}
					}
				}
				JOINT LeftShoulder
				{
					OFFSET 0.000000 0.000000 0.000000
					CHANNELS 3 Zrotation Yrotation Xrotation
					JOINT LeftArm
					{
						OFFSET 3.362410 1.200890 -0.311210
						CHANNELS 3 Zrotation Yrotation Xrotation
						JOINT LeftForeArm
						{
							OFFSET 4.983000 -0.000000 -0.000000
							CHANNELS 3 Zrotation Yrotation Xrotation
							JOINT LeftHand
							{
								OFFSET 3.483560 -0.000000 -0.000000
								CHANNELS 3 Zrotation Yrotation Xrotation
								JOINT LeftFingerBase
								{
									OFFSET 0.000000 0.000000 0.000000
									CHANNELS 3 Zrotation Yrotation Xrotation
									JOINT LeftHandIndex1
									{
										OFFSET 0.715260 -0.000000 -0.000000
										CHANNELS 3 Zrotation Yrotation Xrotation
										End Site
										{
											OFFSET 0.000000 0.000000 0.000000
										}
									}
								}
								JOINT LThumb
								{
									OFFSET 0.000000 0.000000 0.000000
									CHANNELS 3 Zrotation Yrotation Xrotation
									End Site
									{
										OFFSET 0.000000 0.000000 0.000000
									}
								}
							}
						}
					}
				}
				JOINT RightShoulder
				{
					OFFSET 0.000000 0.000000 0.000000
					CHANNELS 3 Zrotation Yrotation Xrotation
					JOINT RightArm
					{
						OFFSET -3.136600 1.374050 -0.404650
						CHANNELS 3 Zrotation Yrotation Xrotation
						JOINT RightForeArm
						{
							OFFSET -5.241900 -0.000000 -0.000000
							CHANNELS 3 Zrotation Yrotation Xrotation
							JOINT RightHand
							{
								OFFSET -3.444170 -0.000000 -0.000000
								CHANNELS 3 Zrotation Yrotation Xrotation
								JOINT RightFingerBase
								{
									OFFSET 0.000000 0.000000 0.000000
									CHANNELS 3 Zrotation Yrotation Xrotation
									JOINT RightHandIndex1
									{
										OFFSET -0.622530 -0.000000 -0.000000
										CHANNELS 3 Zrotation Yrotation Xrotation
										End Site
										{
											OFFSET 0.000000 0.000000 0.000000
										}
									}
								}
								JOINT RThumb
								{
									OFFSET 0.000000 0.000000 0.000000
									CHANNELS 3 Zrotation Yrotation Xrotation
									End Site
									{
										OFFSET 0.000000 0.000000 0.000000
									}
								}
							}
						}
					}
				}
			}
		}
	}
}
MOTION
Frames: 6
Frame Time: 0.008333
1.210366 17.574844 1.763081 8.112839 -52.548352 8.863469 -9.519883 1.932928 7.823107 -6.357645 -13.960031 -17.833271 -2.806141 -1.662783 -2.892252 -0.365522 1.442767 11.286785 1.134800 0.000000 -49.976400 11.296296 -3.074189 -1.933843 3.043633 -35.036735 -10.959850 2.424910 0.791641 -3.644185 -2.813634 -19.899709 14.613098 -8.554300 0.000000 -71.737600 0.564081 4.472258 -8.783097 0.170328 4.487685 -3.805043 0.389141 4.391407 1.505271 -10.699341 2.825222 -6.090389 -1.655550 -0.141271 0.448301 0.000000 0.000000 0.000000 1.478301 18.171168 -3.947922 -79.659028 -29.143187 29.772211 179.354570 -49.315535 179.686754 20.865252 -41.463104 -8.681758 -0.435803 2.353571 -0.000000 0.000000 0.000000 0.000000 0.000000 0.000000 0.000000 -16.538651 7.076432 4.606596 -0.873929 31.266328 -44.447292 1.166719 2.428685 -0.019469 3.595156 -16.731597 -0.526651 0.043039 0.116213 0.000000 0.000000 0.000000 0.000000 0.000000 0.000000 0.000000 
1.209430 17.575787 1.780381 7.752545 -52.116769 8.962786 -9.489460 1.977861 7.950318 -6.081222 -14.539927 -17.578050 -2.752298 -1.640386 -2.935359 -0.331075 1.654398 11.188231 1.190700 0.000000 -49.860800 11.310600 -3.112466 -2.013642 2.969065 -35.282557 -10.469070 2.419156 0.787433 -3.701124 -2.804961 -20.027842 14.919701 -8.694399 0.000000 -71.877200 0.402479 4.306175 -8.843788 0.148354 4.332979 -3.788446 0.371808 4.231654 1.667053 -10.065331 2.027832 -6.196623 -1.658666 -0.140227 0.418715 0.000000 0.000000 0.000000 2.138455 18.132060 -3.988135 -80.062975 -28.260947 29.597172 179.240751 -48.965474 179.683034 20.762875 -41.549497 -8.657746 -0.427267 2.363074 -0.000000 0.000000 0.000000 0.000000 0.000000 0.000000 0.000000 -16.021818 6.222636 4.540062 1.375856 32.027657 -42.723284 1.199268 4.655933 -0.015880 4.884056 -18.006004 -0.776627 0.020291 0.118031 -0.000000 0.000000 0.000000 0.000000 0.000000 0.000000 0.000000 
1.210734 17.575451 1.798219 7.379821 -51.697689 9.093233 -9.467385 2.015017 8.067602 -5.792160 -15.137162 -17.360662 -2.689576 -1.614873 -2.931298 -0.287154 1.918055 11.017725 1.258100 0.000001 -49.681000 11.310303 -3.142165 -2.102139 2.917171 -35.472319 -10.011102 2.410098 0.779098 -3.685492 -2.804715 -20.190408 15.171611 -8.836800 0.000000 -71.989401 0.290057 4.133052 -8.876656 0.131512 4.165657 -3.777915 0.323072 4.063041 1.779373 -9.414822 1.366081 -6.276308 -1.687522 -0.141366 0.396273 0.000000 0.000000 0.000000 2.739329 18.050079 -3.994319 -80.390735 -27.361970 29.357744 179.149640 -48.546736 179.679288 20.786874 -41.619971 -8.686229 -0.426033 2.377671 -0.000000 0.000000 0.000000 0.000000 0.000000 0.000000 0.000000 -15.433299 5.536478 4.403303 3.829751 32.440643 -41.131774 1.073081 7.646286 -0.012483 4.881968 -18.239295 -0.785920 0.016086 0.091693 -0.000000 0.000000 0.000000 0.000000 0.000000 0.000000 0.000000 
1.213928 17.573716 1.816190 6.999074 -51.313022 9.256376 -9.453455 2.045488 8.173120 -5.496392 -15.721293 -17.191299 -2.620548 -1.587920 -2.880525 -0.235975 2.217059 10.778316 1.331200 0.000001 -49.458400 11.296286 -3.164422 -2.191202 2.898591 -35.596061 -9.610163 2.398709 0.767375 -3.594100 -2.811952 -20.376361 15.357362 -8.973600 -0.000000 -72.082800 0.221335 3.957583 -8.889256 0.117282 3.990725 -3.779468 0.238866 3.891130 1.825777 -8.731990 0.894588 -6.311020 -1.756168 -0.145949 0.385839 0.000000 0.000000 0.000000 3.297848 17.916059 -3.962513 -80.639725 -26.434448 29.045661 179.084222 -48.070238 179.675729 20.938210 -41.673753 -8.767695 -0.432442 2.397212 -0.000000 0.000000 0.000000 0.000000 0.000000 0.000000 0.000000 -14.687902 5.066248 4.189254 6.313559 32.467701 -39.504082 0.817428 11.249950 -0.009768 3.710769 -17.256853 -0.561017 0.024957 0.037704 0.000000 0.000000 0.000000 0.000000 0.000000 0.000000 0.000000 
1.218129 17.570378 1.834058 6.614796 -50.988629 9.460295 -9.444409 2.072166 8.270788 -5.197387 -16.270228 -17.084514 -2.548357 -1.562951 -2.794882 -0.179086 2.545434 10.478241 1.408300 0.000000 -49.210500 11.271744 -3.180854 -2.265363 2.928622 -35.630111 -9.301632 2.385314 0.754307 -3.424538 -2.826957 -20.579001 15.453831 -9.095300 -0.000000 -72.132700 0.178973 3.783005 -8.903299 0.100402 3.812417 -3.798544 0.113723 3.719972 1.803709 -7.988705 0.603513 -6.293187 -1.873925 -0.154747 0.389280 0.000000 0.000000 0.000000 3.841479 17.744694 -3.894084 -80.818858 -25.486651 28.679734 179.044785 -47.561661 179.672511 21.226745 -41.702523 -8.904731 -0.447014 2.420588 -0.000000 0.000000 0.000000 0.000000 0.000000 0.000000 0.000000 -13.699746 4.786930 3.888160 8.633863 32.194450 -37.812072 0.469026 15.224500 -0.010184 1.499687 -14.898069 -0.190005 0.043920 -0.044115 0.000000 0.000000 0.000000 0.000000 0.000000 0.000000 0.000000 
1.222810 17.565295 1.851424 6.224905 -50.733218 9.702378 -9.437858 2.098542 8.361307 -4.898229 -16.762166 -17.040706 -2.475145 -1.540740 -2.673793 -0.119138 2.880604 10.120754 1.481700 0.000001 -48.965600 11.240414 -3.193383 -2.321021 3.009469 -35.587845 -9.089298 2.372013 0.741115 -3.184687 -2.846782 -20.782044 15.462170 -9.193799 -0.000000 -72.159900 0.145984 3.605747 -8.924762 0.079409 3.628623 -3.836777 -0.043323 3.546185 1.713965 -7.169573 0.468474 -6.216721 -2.040814 -0.167825 0.408012 0.000000 0.000000 0.000000 4.406994 17.538409 -3.791986 -80.966736 -24.499496 28.267959 179.027853 -47.043292 179.669816 21.609877 -41.725702 -9.083045 -0.467614 2.446952 -0.000000 0.000000 0.000000 0.000000 0.000000 0.000000 0.000000 -12.439796 4.652778 3.499808 10.687551 31.723097 -36.103302 0.073373 19.391146 -0.017720 -1.579466 -11.243747 0.160134 0.070569 -0.149051 -0.000000 0.000000 0.000000 0.000000 0.000000 0.000000 0.000000 
